<mxfile host="app.diagrams.net" modified="2024-03-03T03:10:49.352Z" agent="Mozilla/5.0 (X11; Linux x86_64) AppleWebKit/537.36 (KHTML, like Gecko) Chrome/121.0.0.0 Safari/537.36 OPR/107.0.0.0" etag="5pk4XH1DYXUxyGhJV77F" version="23.1.5" type="github">
  <diagram name="Page-1" id="gfGwMoGatoendAA6c65g">
    <mxGraphModel dx="473" dy="358" grid="1" gridSize="10" guides="1" tooltips="1" connect="1" arrows="1" fold="1" page="0" pageScale="1" pageWidth="850" pageHeight="1100" background="#FFFFFF" math="0" shadow="0">
      <root>
        <mxCell id="0" />
        <mxCell id="1" parent="0" />
      </root>
    </mxGraphModel>
  </diagram>
</mxfile>
